:SAMPLES-PER-SECOND 30
:FULLY-SPECIFIED
:DEGREES
750
root  -38.0076 38.3941 -0.31038 -22.249 77.2271 -20.2065
RightUpLeg  -19.099 -3.60069 5.09894
RightLeg  27.2311 -0.09616 -0.29845
RightFoot  -5.00589 0.0916785 -2.23911
RightToes  -1.33073e-015 0 -3.6325e-017
Spine  5.33615 -0.998514 13.3321
Spine1  7.86811 -0.196736 1.90203
HEad  -2.93283 -23.5452 -3.32268
LeftShoulder1  -0.43068 4.57824 -33.933
LeftArm  11.5287 14.482 -40.524
LeftForeArm  20.7718 -21.6877 -4.31757
LeftHand  -0.0500906 6.90974 -0.46936
RightShoulder  -1.27013 -6.71327 33.0266
RightArm  -1.24427 -15.167 37.4265
RightForeArm  33.1021 73.8244 39.3472
RightHand  -1.8088 16.6751 -9.90583
LeftUpLeg  3.91839 -0.560312 3.95814
LeftLeg  49.011 -9.66936 -11.2539
LeftFoot  2.51546 1.02341 -8.36833
LeftToes  -1.63346e-009 7.54925e-011 9.86887e-012
751
root  -36.9926 38.431 0.0454049 -26.1379 78.0947 -24.061
RightUpLeg  -17.3702 -4.78083 5.56539
RightLeg  27.8804 -0.0955197 -0.306575
RightFoot  -7.26999 0.0214823 -2.01142
RightToes  -1.33073e-015 0 -3.6325e-017
Spine  5.85066 -0.934662 14.6916
Spine1  8.20809 0.151103 2.31552
HEad  -2.85688 -25.6258 -2.15577
LeftShoulder1  -0.50703 4.76262 -34.1014
LeftArm  12.324 14.4387 -40.0269
LeftForeArm  20.8259 -24.335 -4.03843
LeftHand  -0.0855375 7.66305 -1.95061
RightShoulder  -1.24687 -6.66509 32.893
RightArm  -2.90678 -12.8897 37.3555
RightForeArm  27.7433 72.0733 34.8369
RightHand  -2.01284 17.7798 -10.4702
LeftUpLeg  -1.78687 -0.806799 5.03726
LeftLeg  56.9381 -6.83317 -10.6635
LeftFoot  11.5786 2.03864 -10.5007
LeftToes  -1.63346e-009 7.54925e-011 9.86887e-012
752
root  -35.9358 38.6131 0.398417 -26.4052 78.6239 -24.072
RightUpLeg  -14.7784 -6.31122 5.29371
RightLeg  27.2273 0.802017 0.225131
RightFoot  -8.79877 -0.0105183 -2.19413
RightToes  -1.33073e-015 0 -3.6325e-017
Spine  6.28058 -0.571407 16.039
Spine1  8.62061 1.01985 1.12882
HEad  -3.0073 -28.2633 -1.02204
LeftShoulder1  -0.386682 4.47818 -33.5508
LeftArm  10.2959 14.4017 -40.1799
LeftForeArm  21.0485 -26.0331 -4.4636
LeftHand  -0.0281017 5.59585 -0.073255
RightShoulder  -1.29588 -6.7859 32.9446
RightArm  -4.77541 -9.9259 37.5932
RightForeArm  22.7719 69.5513 29.7632
RightHand  -2.02761 18.1316 -10.3848
LeftUpLeg  -6.66712 -0.442533 5.22757
LeftLeg  61.9873 -4.63039 -8.83563
LeftFoot  8.3503 1.46896 -8.69739
LeftToes  -1.63346e-009 7.54925e-011 9.86887e-012
753
root  -34.8202 38.8291 0.738435 -25.4055 79.3759 -22.807
RightUpLeg  -11.8035 -7.26987 4.5366
RightLeg  25.9678 1.2023 0.554456
RightFoot  -10.1347 -0.0450568 -2.25849
RightToes  -1.33073e-015 0 -3.6325e-017
Spine  6.7984 -0.26984 16.3967
Spine1  8.35337 1.49041 0.689359
HEad  -2.52803 -30.1204 -0.751203
LeftShoulder1  -0.353624 4.39653 -33.474
LeftArm  9.07384 14.6465 -40.1297
LeftForeArm  20.006 -27.1527 -4.76727
LeftHand  -0.0281124 5.63895 1.25717
RightShoulder  -1.23531 -6.66511 32.5323
RightArm  -6.59156 -6.81785 37.5856
RightForeArm  18.2757 66.4206 25.0754
RightHand  -1.85982 17.4754 -9.82346
LeftUpLeg  -11.1713 -0.430146 4.70438
LeftLeg  63.6914 -3.36279 -6.80614
LeftFoot  5.75384 0.744933 -5.21823
LeftToes  -1.63346e-009 7.54925e-011 9.86887e-012
754
root  -33.7177 39.0534 1.05703 -21.0857 79.6104 -18.3898
RightUpLeg  -8.80953 -7.8899 3.38795
RightLeg  24.1291 1.86258 1.07492
RightFoot  -11.18 -0.0718864 -2.48521
RightToes  -1.33073e-015 0 -3.6325e-017
Spine  7.41246 0.335346 16.5219
Spine1  7.79589 2.24119 -0.0432421
HEad  -1.75777 -32.0113 -0.868701
LeftShoulder1  -0.324692 4.32161 -33.5565
LeftArm  8.38907 14.5888 -40.022
LeftForeArm  18.9796 -27.5859 -4.92094
LeftHand  -0.0294899 5.16871 2.52572
RightShoulder  -1.1217 -6.41108 32.0243
RightArm  -8.76956 -3.94644 37.4143
RightForeArm  13.3871 63.3313 21.8712
RightHand  -2.27749 19.2076 -11.1297
LeftUpLeg  -15.0601 0.131286 3.60462
LeftLeg  61.9716 -2.55206 -4.61001
LeftFoot  3.82381 0.352241 -2.80207
LeftToes  -1.63346e-009 7.54925e-011 9.86887e-012
